<mxfile host="app.diagrams.net" modified="2024-03-24T03:55:47.198Z" agent="Mozilla/5.0 (Windows NT 10.0; Win64; x64) AppleWebKit/537.36 (KHTML, like Gecko) Chrome/123.0.0.0 Safari/537.36" version="24.0.7" etag="JUTwW_5gqbihylZau_A5" type="github">
  <diagram name="第 1 页" id="zA73b5mzPIkbRHoxlWGf">
    <mxGraphModel>
      <root>
        <mxCell id="0" />
        <mxCell id="1" parent="0" />
      </root>
    </mxGraphModel>
  </diagram>
</mxfile>
